<svg width="103" height="60" viewBox="0 0 103 60" fill="none" xmlns="http://www.w3.org/2000/svg">
<g id="XM ">
<path d="M102.272 0V48.8636H89.0785V18.6663L69.6312 48.6198L45.2159 11.0217L15.7345 48.8636H0L38.0651 0H53.7986L69.6312 24.3833L85.4628 0H102.272Z" fill="white"/>
<path d="M5.51446 54.1167V55.2846H3.62655V59.9122H2.11622V55.2846H0.219525V54.1167H5.51446Z" fill="white"/>
<path d="M9.45116 59.9122V54.1167H13.9646V55.2846H10.9615V56.4613H13.3499V57.5589H10.9615V58.7443H14.0787V59.9122H9.45116Z" fill="white"/>
<path d="M23.1495 58.2526C23.0383 58.6565 22.8597 58.9902 22.6139 59.2536C22.368 59.5112 22.0753 59.7014 21.7358 59.8244C21.3962 59.9415 21.0216 60 20.6118 60C20.0264 60 19.52 59.8829 19.0927 59.6488C18.6653 59.4087 18.3375 59.0663 18.1092 58.6214C17.8809 58.1765 17.7668 57.6408 17.7668 57.0145C17.7668 56.3881 17.8809 55.8524 18.1092 55.4075C18.3375 54.9626 18.6653 54.6231 19.0927 54.3889C19.52 54.1489 20.0235 54.0289 20.603 54.0289C21.0069 54.0289 21.3787 54.0875 21.7182 54.2045C22.0577 54.3158 22.3446 54.4885 22.5787 54.7226C22.8129 54.9568 22.9797 55.2583 23.0793 55.6271L21.7533 56.1627C21.6714 55.7998 21.5367 55.551 21.3494 55.4163C21.1679 55.2817 20.9367 55.2144 20.6557 55.2144C20.3806 55.2144 20.1406 55.2817 19.9357 55.4163C19.7366 55.551 19.5815 55.7529 19.4703 56.0222C19.3649 56.2856 19.3122 56.6164 19.3122 57.0145C19.3122 57.4067 19.362 57.7374 19.4615 58.0067C19.561 58.276 19.7103 58.478 19.9093 58.6126C20.1142 58.7472 20.3659 58.8146 20.6645 58.8146C20.9455 58.8146 21.1826 58.7385 21.3757 58.5863C21.5748 58.4282 21.7094 58.1882 21.7797 57.8662L23.1495 58.2526Z" fill="white"/>
<path d="M32.2963 54.1167V59.9122H30.786V54.1167H32.2963ZM28.5732 54.1167V59.9122H27.0629V54.1167H28.5732ZM31.5939 56.4086V57.5765H27.8005V56.4086H31.5939Z" fill="white"/>
<path d="M41.8781 54.1167V59.9122H40.2009L38.4008 56.7774L37.9617 55.9168H37.953L37.9881 56.9881V59.9122H36.6534V54.1167H38.3305L40.1306 57.2516L40.5697 58.1121H40.5785L40.5434 57.0408V54.1167H41.8781Z" fill="white"/>
<path d="M48.8345 54.0289C49.4199 54.0289 49.9233 54.1489 50.3448 54.3889C50.7721 54.6231 51.1 54.9626 51.3283 55.4075C51.5566 55.8524 51.6707 56.3881 51.6707 57.0145C51.6707 57.6408 51.5566 58.1765 51.3283 58.6214C51.1 59.0663 50.7721 59.4087 50.3448 59.6488C49.9233 59.8829 49.4199 60 48.8345 60C48.2491 60 47.7427 59.8829 47.3153 59.6488C46.888 59.4087 46.5602 59.0663 46.3319 58.6214C46.1036 58.1765 45.9894 57.6408 45.9894 57.0145C45.9894 56.3881 46.1036 55.8524 46.3319 55.4075C46.5602 54.9626 46.888 54.6231 47.3153 54.3889C47.7427 54.1489 48.2491 54.0289 48.8345 54.0289ZM48.8345 55.2144C48.5535 55.2144 48.3164 55.2817 48.1232 55.4163C47.93 55.551 47.7837 55.7529 47.6841 56.0222C47.5846 56.2856 47.5349 56.6164 47.5349 57.0145C47.5349 57.4067 47.5846 57.7374 47.6841 58.0067C47.7837 58.276 47.93 58.478 48.1232 58.6126C48.3164 58.7472 48.5535 58.8146 48.8345 58.8146C49.1154 58.8146 49.3496 58.7472 49.5369 58.6126C49.7301 58.478 49.8765 58.276 49.976 58.0067C50.0755 57.7374 50.1253 57.4067 50.1253 57.0145C50.1253 56.6164 50.0755 56.2856 49.976 56.0222C49.8765 55.7529 49.7301 55.551 49.5369 55.4163C49.3496 55.2817 49.1154 55.2144 48.8345 55.2144Z" fill="white"/>
<path d="M57.2932 58.7443H60.1997V59.9122H55.7829V54.1167H57.2932V58.7443Z" fill="white"/>
<path d="M66.5491 54.0289C67.1345 54.0289 67.6379 54.1489 68.0594 54.3889C68.4867 54.6231 68.8146 54.9626 69.0429 55.4075C69.2712 55.8524 69.3853 56.3881 69.3853 57.0145C69.3853 57.6408 69.2712 58.1765 69.0429 58.6214C68.8146 59.0663 68.4867 59.4087 68.0594 59.6488C67.6379 59.8829 67.1345 60 66.5491 60C65.9637 60 65.4573 59.8829 65.03 59.6488C64.6026 59.4087 64.2748 59.0663 64.0465 58.6214C63.8182 58.1765 63.704 57.6408 63.704 57.0145C63.704 56.3881 63.8182 55.8524 64.0465 55.4075C64.2748 54.9626 64.6026 54.6231 65.03 54.3889C65.4573 54.1489 65.9637 54.0289 66.5491 54.0289ZM66.5491 55.2144C66.2681 55.2144 66.031 55.2817 65.8378 55.4163C65.6446 55.551 65.4983 55.7529 65.3988 56.0222C65.2992 56.2856 65.2495 56.6164 65.2495 57.0145C65.2495 57.4067 65.2992 57.7374 65.3988 58.0067C65.4983 58.276 65.6446 58.478 65.8378 58.6126C66.031 58.7472 66.2681 58.8146 66.5491 58.8146C66.8301 58.8146 67.0642 58.7472 67.2516 58.6126C67.4447 58.478 67.5911 58.276 67.6906 58.0067C67.7901 57.7374 67.8399 57.4067 67.8399 57.0145C67.8399 56.6164 67.7901 56.2856 67.6906 56.0222C67.5911 55.7529 67.4447 55.551 67.2516 55.4163C67.0642 55.2817 66.8301 55.2144 66.5491 55.2144Z" fill="white"/>
<path d="M75.8947 60C75.3796 60 74.92 59.8858 74.5161 59.6575C74.118 59.4292 73.8078 59.0926 73.5853 58.6477C73.3629 58.2028 73.2517 57.6613 73.2517 57.0232C73.2517 56.3969 73.3687 55.8612 73.6029 55.4163C73.8371 54.9714 74.1707 54.629 74.6039 54.3889C75.043 54.1489 75.5581 54.0289 76.1494 54.0289C76.805 54.0289 77.3348 54.1489 77.7387 54.3889C78.1427 54.6231 78.4558 54.9978 78.6783 55.5129L77.2821 56.0661C77.206 55.7676 77.0714 55.551 76.8782 55.4163C76.685 55.2817 76.445 55.2144 76.1582 55.2144C75.8713 55.2144 75.6255 55.2846 75.4206 55.4251C75.2157 55.5597 75.0605 55.7617 74.9552 56.031C74.8498 56.2944 74.7971 56.6222 74.7971 57.0145C74.7971 57.4242 74.8498 57.7667 74.9552 58.0418C75.0664 58.317 75.2274 58.5219 75.4381 58.6565C75.6547 58.7853 75.9211 58.8497 76.2372 58.8497C76.407 58.8497 76.5621 58.8292 76.7026 58.7882C76.8431 58.7472 76.966 58.6887 77.0714 58.6126C77.1768 58.5306 77.2587 58.4311 77.3173 58.314C77.3758 58.1911 77.4051 58.0477 77.4051 57.8838V57.796H76.0791V56.7862H78.6871V59.9122H77.6597L77.5456 58.5511L77.7914 58.7619C77.6685 59.16 77.446 59.4673 77.1241 59.6839C76.808 59.8946 76.3982 60 75.8947 60Z" fill="white"/>
<path d="M84.4268 54.1167V59.9122H82.9165V54.1167H84.4268Z" fill="white"/>
<path d="M88.7854 59.9122V54.1167H93.2988V55.2846H90.2957V56.4613H92.6841V57.5589H90.2957V58.7443H93.4129V59.9122H88.7854Z" fill="white"/>
<path d="M99.6638 54.0289C100.202 54.0289 100.677 54.1138 101.086 54.2836C101.502 54.4475 101.862 54.6904 102.166 55.0124L101.438 55.9871C101.186 55.7237 100.914 55.5275 100.621 55.3988C100.334 55.2641 100.006 55.1968 99.6374 55.1968C99.4208 55.1968 99.2452 55.2202 99.1106 55.267C98.9759 55.3139 98.8793 55.3783 98.8208 55.4602C98.7623 55.5422 98.733 55.6358 98.733 55.7412C98.733 55.8642 98.7886 55.9695 98.8998 56.0573C99.0169 56.1393 99.2042 56.2095 99.4618 56.2681L100.437 56.4876C101.016 56.6222 101.44 56.8184 101.71 57.0759C101.979 57.3335 102.114 57.676 102.114 58.1033C102.114 58.5131 102.008 58.8614 101.798 59.1482C101.587 59.4292 101.297 59.6429 100.928 59.7893C100.559 59.9298 100.138 60 99.6638 60C99.2774 60 98.9086 59.959 98.5574 59.8771C98.2061 59.7893 97.89 59.6663 97.609 59.5083C97.328 59.3502 97.0909 59.1687 96.8978 58.9638L97.6266 57.954C97.7729 58.1238 97.9515 58.276 98.1622 58.4106C98.3788 58.5394 98.613 58.6419 98.8647 58.718C99.1223 58.7941 99.3828 58.8321 99.6462 58.8321C99.8511 58.8321 100.021 58.8116 100.156 58.7707C100.296 58.7297 100.398 58.6682 100.463 58.5863C100.527 58.5043 100.559 58.4077 100.559 58.2965C100.559 58.1736 100.516 58.0711 100.428 57.9892C100.34 57.9013 100.173 57.8282 99.9272 57.7696L98.8559 57.5325C98.5281 57.4564 98.2354 57.3569 97.9778 57.234C97.7261 57.1052 97.5271 56.9354 97.3807 56.7247C97.2344 56.5081 97.1612 56.2388 97.1612 55.9168C97.1612 55.5539 97.2607 55.2319 97.4597 54.9509C97.6588 54.6641 97.9456 54.4387 98.3203 54.2748C98.6949 54.1109 99.1428 54.0289 99.6638 54.0289Z" fill="white"/>
<path d="M53.8477 48.8636H38.0648L0 0H15.7341L51.1114 45.4025L53.8477 48.8636Z" fill="#0669F7"/>
</g>
</svg>
